<svg width="120" height="120" viewBox="0 0 120 120" fill="none" xmlns="http://www.w3.org/2000/svg">
    <g clip-path="url(#clip0_5_225)">
        <path d="M59.999 120C58.631 120 57.2667 119.954 55.9468 119.865C54.5825 119.775 53.2164 119.636 51.8829 119.454C51.2961 119.375 50.765 119.296 50.259 119.213C48.7562 118.969 47.2265 118.659 45.7141 118.289C45.1965 118.164 44.6885 118.033 44.2075 117.899C44.0382 117.855 43.865 117.806 43.6937 117.758C42.9626 117.552 42.2545 117.339 41.5926 117.123C41.5502 117.112 41.5002 117.094 41.4502 117.079C40.8518 116.887 40.2283 116.673 39.5991 116.444C39.0681 116.252 38.5293 116.048 37.9521 115.821C36.7495 115.347 35.5449 114.824 34.3712 114.268C33.8825 114.039 33.3726 113.787 32.8107 113.502C32.7107 113.452 32.6087 113.4 32.5086 113.348L32.3932 113.288C25.7972 109.863 19.9496 105.293 15.0161 99.7072C5.33376 88.743 0 74.6404 0 59.999C0 43.9722 6.24196 28.9037 17.5733 17.572C28.9047 6.24024 43.9727 0 59.999 0C76.0253 0 91.0934 6.24024 102.427 17.572C113.76 28.9037 120 43.9722 120 59.999C120 69.4162 117.88 78.4311 113.7 86.7938C109.713 94.7677 103.877 101.885 96.8197 107.375C95.1611 108.668 93.4139 109.884 91.6283 110.993C89.8177 112.12 87.9185 113.165 85.9828 114.097C85.5518 114.304 85.09 114.52 84.5282 114.772L84.4743 114.795C84.405 114.826 84.3358 114.857 84.2665 114.885C83.847 115.072 83.4199 115.255 82.9985 115.428L82.808 115.509C82.6887 115.559 82.5771 115.605 82.4655 115.647C81.0358 116.225 79.5946 116.744 78.1823 117.189C78.0707 117.227 77.9572 117.262 77.8417 117.296L77.7417 117.327C76.5679 117.691 75.3326 118.03 74.0762 118.332C69.4986 119.436 64.7613 119.996 59.999 119.996V120ZM59.999 0.384844C44.0747 0.384844 29.1048 6.58467 17.8446 17.8452C6.58639 29.1038 0.384831 44.0742 0.384831 59.999C0.384831 74.548 5.68396 88.5583 15.3067 99.4513C20.2094 105.001 26.0184 109.542 32.5721 112.944L32.6876 113.004C32.7857 113.056 32.8857 113.106 32.9858 113.156C33.5457 113.44 34.0518 113.69 34.5367 113.918C35.7027 114.47 36.8995 114.989 38.0944 115.459C38.6678 115.686 39.2028 115.888 39.73 116.078C40.3553 116.306 40.9749 116.517 41.5714 116.71C41.6176 116.725 41.6618 116.738 41.7061 116.752C42.3699 116.967 43.0703 117.179 43.7976 117.385C43.965 117.433 44.1363 117.481 44.3056 117.525C44.7867 117.658 45.2889 117.789 45.8026 117.914C47.3073 118.282 48.8255 118.591 50.3205 118.832C50.8227 118.915 51.35 118.994 51.933 119.073C53.2568 119.253 54.6152 119.392 55.9699 119.48C57.2821 119.569 58.6367 119.615 59.9952 119.615C64.7286 119.615 69.4332 119.059 73.9838 117.962C75.2326 117.662 76.4583 117.325 77.6282 116.964L77.7282 116.933C77.8398 116.898 77.9495 116.865 78.0611 116.827C79.4676 116.384 80.9011 115.869 82.3231 115.293C82.4347 115.249 82.5424 115.205 82.6502 115.161L82.8869 115.062C83.2929 114.895 83.7046 114.718 84.1126 114.537C84.1838 114.506 84.2492 114.478 84.3165 114.447L84.3704 114.424C84.9284 114.172 85.3883 113.958 85.8154 113.752C87.7396 112.827 89.6272 111.789 91.4263 110.668C93.2003 109.567 94.9359 108.357 96.5849 107.073C103.597 101.616 109.396 94.5445 113.358 86.6225C117.51 78.3157 119.617 69.3584 119.617 60.001C119.617 44.0761 113.416 29.1057 102.155 17.8471C90.8952 6.58467 75.9234 0.384844 59.999 0.384844Z" fill="#DADBDC"/>
        <path d="M52.7161 81.9968L67.2954 85.4892L65.6041 65.0579L52.7276 66.1239L52.7161 81.9968Z" fill="#F3A3A6"/>
        <path d="M63.1451 70.9074C70.9834 70.9074 77.3377 64.553 77.3377 56.7144C77.3377 48.8758 70.9834 42.5214 63.1451 42.5214C55.3067 42.5214 48.9525 48.8758 48.9525 56.7144C48.9525 64.553 55.3067 70.9074 63.1451 70.9074Z" fill="#F3A3A6"/>
        <path d="M78.1245 117.008C78.011 117.046 77.8994 117.081 77.7859 117.116C77.7532 117.125 77.7205 117.137 77.6877 117.146C76.4851 117.52 75.2652 117.853 74.0318 118.149C69.5312 119.234 64.8305 119.808 59.999 119.808C58.6405 119.808 57.2936 119.763 55.9602 119.673C54.5959 119.582 53.2452 119.446 51.9098 119.263C51.3672 119.19 50.8285 119.111 50.2916 119.023C48.7619 118.774 47.2495 118.464 45.7602 118.101C45.258 117.98 44.7577 117.851 44.2594 117.712C44.0881 117.668 43.9169 117.62 43.7476 117.572C43.0452 117.373 42.3468 117.164 41.6541 116.939C41.6079 116.925 41.5598 116.91 41.5136 116.894C40.894 116.694 40.2783 116.483 39.6664 116.261C39.1161 116.063 38.5697 115.855 38.0251 115.64C36.8148 115.163 35.6257 114.647 34.4558 114.093L34.9061 112.053L36.4666 104.987L39.855 89.6358L43.28 74.1228L52.2793 74.373H52.2831L52.7218 74.3864L66.4083 74.7674L72.3963 74.9348L78.1245 117.008Z" fill="#DADBDC"/>
        <path d="M91.5283 110.829C89.7157 111.959 87.8358 112.992 85.9001 113.923C85.421 114.154 84.9361 114.377 84.4493 114.597C84.3627 114.635 84.2781 114.674 84.1915 114.71C83.772 114.897 83.3506 115.078 82.9254 115.253L82.7349 115.334C82.6233 115.38 82.5117 115.426 82.3982 115.47C80.9993 116.036 79.5754 116.552 78.1265 117.008C78.013 117.046 77.9014 117.081 77.7879 117.116L65.2347 84.9947L64.3861 82.8261L62.0194 76.7667L61.2344 74.7598L66.4161 74.8406L72.3983 74.9349C77.8283 75.6295 82.3308 79.4722 83.8721 84.7234L91.5302 110.829H91.5283Z" fill="#DADBDC"/>
        <path d="M53.1894 63.199C53.6935 63.1143 54.1976 63.0277 54.7018 62.9431C54.8211 60.2472 55.0808 57.2397 57.0993 55.4483C58.2114 54.4611 59.82 53.8858 60.3723 52.5042C60.8302 51.3593 60.403 49.9527 61.0419 48.8982C61.7134 47.7879 63.2142 47.5897 64.5111 47.5089C66.5411 47.3839 68.6076 47.2607 70.5838 47.7418C72.5599 48.2247 74.4667 49.4139 75.3095 51.265C75.5693 51.8346 75.7193 52.4484 75.8694 53.0565C76.3755 55.1134 77.1509 59.0273 77.1509 59.0273C77.1509 59.0273 77.301 58.2172 77.7281 56.6413C78.5998 55.3944 79.6639 54.2437 80.1757 52.8121C80.7914 51.088 80.5201 49.1618 79.9159 47.4358C78.544 43.5085 75.3614 40.1892 71.3977 38.9269C67.432 37.6666 63.6818 36.9527 60.7186 39.8736C60.1625 40.422 59.6622 41.0339 59.0273 41.4881C57.8535 42.3289 56.3546 42.5406 55.0308 43.1217C52.0849 44.4148 49.4219 47.5243 48.7581 50.6723C48.0942 53.8204 48.4406 57.0819 48.7908 60.2819C49.0929 63.0412 50.4032 66.118 52.7007 67.6767C52.7949 66.2643 52.8892 64.8538 52.9835 63.4415L53.1875 63.2009H53.1894V63.199Z" fill="#2F2E43"/>
        <path d="M61.0458 76.4684L60.9072 76.6955L57.032 83.03L51.2865 92.4279L50.1223 94.3309L45.8777 101.273C45.8777 101.273 44.5 103.211 42.1756 105.695L42.1679 105.703C41.3232 106.604 40.3553 107.575 39.2836 108.551C39.2759 108.561 39.2682 108.568 39.2586 108.574C37.9501 109.767 36.4878 110.966 34.9061 112.053C34.2558 112.501 33.5861 112.928 32.9011 113.329C32.7607 113.259 32.6221 113.186 32.4836 113.115C25.8991 109.696 20.0305 105.089 15.1624 99.5783C20.2441 91.4619 30.2997 82.3604 36.7783 76.9398C40.4438 73.8707 45.3408 72.7142 49.9896 73.8264L52.2793 74.3729L52.7219 74.4788L61.0458 76.4684Z" fill="#DADBDC"/>
        <path d="M79.1252 74.5154C76.6295 73.6168 70.0239 73.6129 67.0607 74.6135C66.4854 74.8079 66.1371 75.3928 66.2372 75.9913L66.3545 76.7013C66.0967 76.6628 65.8446 76.5897 65.606 76.48C64.8999 76.1567 63.5087 75.718 62.1041 76.4184C61.1228 76.9072 60.432 77.8289 60.1895 78.9007C59.6104 81.4637 61.0708 82.8819 61.0708 82.8819L63.0161 84.708C64.6459 86.2358 66.4238 87.5981 68.3229 88.7719L68.3614 88.795L67.6687 84.6271C67.2781 85.3141 66.3949 85.5392 65.7234 85.1236C64.0263 84.073 61.2536 81.9679 61.5903 79.578C61.8251 77.9116 62.7506 77.5576 63.6395 77.6326C64.6343 77.7173 65.5021 78.3426 65.9274 79.2451C66.0294 79.4606 66.1968 79.6376 66.4046 79.7531L66.9048 80.0263L68.371 88.8604C68.4365 89.2568 68.6905 89.5993 69.0503 89.7763C72.4984 91.4677 76.2197 90.5903 77.5069 90.1958C77.8013 90.1054 78.0534 89.911 78.2112 89.6455L78.4883 89.1856C78.5845 89.0278 78.6422 88.8489 78.6614 88.6661L79.941 75.8085C79.9968 75.2408 79.6601 74.7097 79.1232 74.5154H79.1252Z" fill="#9745D8"/>
        <path d="M73.1506 75.7449C76.3525 75.7449 78.9481 75.5003 78.9481 75.1985C78.9481 74.8966 76.3525 74.652 73.1506 74.652C69.9488 74.652 67.3531 74.8966 67.3531 75.1985C67.3531 75.5003 69.9488 75.7449 73.1506 75.7449Z" fill="#DEDFE0"/>
        <path d="M61.5691 86.1511C64.7151 83.7439 65.96 80.1244 64.3495 78.0675C62.7409 76.0105 58.8868 76.2933 55.7389 78.7024C54.469 79.6472 53.453 80.8903 52.7815 82.3277L39.5895 92.6973L44.827 98.9625L57.2763 88.0734C58.8522 87.7905 60.3242 87.1305 61.5672 86.1511H61.5691Z" fill="#F3A3A6"/>
        <path d="M52.8412 95.1602L47.6229 85.9817L28.6334 94.9178L39.2586 108.576L52.8412 95.1602Z" fill="#DADBDC"/>
        <path opacity="0.1" d="M41.4598 88.8816C41.4598 88.8816 27.6174 99.0164 28.1292 98.9606C28.641 98.9048 35.466 95.1507 35.466 95.1507L41.4598 88.8816Z" fill="#272223"/>
    </g>
    <defs>
    <clipPath id="clip0_5_225">
    <rect width="120" height="120" fill="white"/>
    </clipPath>
    </defs>
</svg>
